<svg width="23" height="24" viewBox="0 0 23 24" fill="none" xmlns="http://www.w3.org/2000/svg">
<path d="M10.005 2.66921C9.74101 1.88871 9.25144 1.21285 8.60379 0.734787C7.95613 0.256724 7.18228 0 6.38889 0C5.5955 0 4.82164 0.256724 4.17399 0.734787C3.52633 1.21285 3.03677 1.88871 2.77278 2.66921H1.27778C0.93889 2.66921 0.613882 2.80964 0.374252 3.05963C0.134623 3.30961 0 3.64865 0 4.00218C0 4.3557 0.134623 4.69475 0.374252 4.94473C0.613882 5.19471 0.93889 5.33515 1.27778 5.33515H2.77278C3.03677 6.11565 3.52633 6.79151 4.17399 7.26957C4.82164 7.74763 5.5955 8.00436 6.38889 8.00436C7.18228 8.00436 7.95613 7.74763 8.60379 7.26957C9.25144 6.79151 9.74101 6.11565 10.005 5.33515H21.7222C22.0611 5.33515 22.3861 5.19471 22.6257 4.94473C22.8654 4.69475 23 4.3557 23 4.00218C23 3.64865 22.8654 3.30961 22.6257 3.05963C22.3861 2.80964 22.0611 2.66921 21.7222 2.66921H10.005ZM1.27778 10.667H12.995C13.259 9.88653 13.7486 9.21067 14.3962 8.73261C15.0439 8.25455 15.8177 7.99782 16.6111 7.99782C17.4045 7.99782 18.1784 8.25455 18.826 8.73261C19.4737 9.21067 19.9632 9.88653 20.2272 10.667H21.7222C22.0611 10.667 22.3861 10.8075 22.6257 11.0574C22.8654 11.3074 23 11.6465 23 12C23 12.3535 22.8654 12.6926 22.6257 12.9426C22.3861 13.1925 22.0611 13.333 21.7222 13.333H20.2272C19.9632 14.1135 19.4737 14.7893 18.826 15.2674C18.1784 15.7455 17.4045 16.0022 16.6111 16.0022C15.8177 16.0022 15.0439 15.7455 14.3962 15.2674C13.7486 14.7893 13.259 14.1135 12.995 13.333H1.27778C0.93889 13.333 0.613882 13.1925 0.374252 12.9426C0.134623 12.6926 0 12.3535 0 12C0 11.6465 0.134623 11.3074 0.374252 11.0574C0.613882 10.8075 0.93889 10.667 1.27778 10.667ZM2.77278 18.6649H1.27778C0.93889 18.6649 0.613882 18.8053 0.374252 19.0553C0.134623 19.3052 0 19.6443 0 19.9978C0 20.3513 0.134623 20.6904 0.374252 20.9404C0.613882 21.1904 0.93889 21.3308 1.27778 21.3308H2.77278C3.03677 22.1113 3.52633 22.7872 4.17399 23.2652C4.82164 23.7433 5.5955 24 6.38889 24C7.18228 24 7.95613 23.7433 8.60379 23.2652C9.25144 22.7872 9.74101 22.1113 10.005 21.3308H21.7222C22.0611 21.3308 22.3861 21.1904 22.6257 20.9404C22.8654 20.6904 23 20.3513 23 19.9978C23 19.6443 22.8654 19.3052 22.6257 19.0553C22.3861 18.8053 22.0611 18.6649 21.7222 18.6649H10.005C9.74101 17.8844 9.25144 17.2085 8.60379 16.7304C7.95613 16.2524 7.18228 15.9956 6.38889 15.9956C5.5955 15.9956 4.82164 16.2524 4.17399 16.7304C3.52633 17.2085 3.03677 17.8844 2.77278 18.6649Z" fill="#1F4068"/>
</svg>
