<svg  width="87" height="30" viewBox="0 0 87 30" fill="none" xmlns="http://www.w3.org/2000/svg">
<path d="M2 13C0.895431 13 9.65645e-08 13.8954 0 15C-9.65645e-08 16.1046 0.89543 17 2 17L2 13ZM86.4142 16.4142C87.1953 15.6332 87.1953 14.3668 86.4142 13.5858L73.6863 0.857871C72.9052 0.0768218 71.6389 0.0768217 70.8579 0.85787C70.0768 1.63892 70.0768 2.90525 70.8579 3.6863L82.1716 15L70.8579 26.3137C70.0768 27.0948 70.0768 28.3611 70.8579 29.1421C71.6389 29.9232 72.9052 29.9232 73.6863 29.1421L86.4142 16.4142ZM2 17L85 17L85 13L2 13L2 17Z" fill="black"/>
</svg>
