<svg width="20" height="20" viewBox="0 0 22 22" fill="none" xmlns="http://www.w3.org/2000/svg">
<path d="M2.222 22C1.58858 22 1.06012 21.7882 0.636625 21.3647C0.213125 20.9412 0.000916667 20.4123 0 19.778V2.222C0 1.58858 0.212208 1.06012 0.636625 0.636625C1.06104 0.213125 1.5895 0.000916667 2.222 0H15.9184L22 6.08162V19.7794C22 20.4119 21.7883 20.9403 21.3648 21.3647C20.9413 21.7892 20.4123 22.0009 19.778 22H2.222ZM2.222 20.625H19.7794C20.026 20.625 20.2285 20.5457 20.3871 20.3871C20.5457 20.2285 20.625 20.026 20.625 19.7794V6.875H15.125V1.375H2.222C1.9745 1.375 1.77146 1.45429 1.61287 1.61287C1.45429 1.77146 1.375 1.9745 1.375 2.222V19.7794C1.375 20.026 1.45429 20.2285 1.61287 20.3871C1.77146 20.5457 1.9745 20.625 2.222 20.625ZM4.8125 16.5H17.1875V15.125H4.8125V16.5ZM4.8125 6.875H11V5.5H4.8125V6.875ZM4.8125 11.6875H17.1875V10.3125H4.8125V11.6875Z" fill="black"/>
</svg>