<svg width="16" height="14" viewBox="0 0 16 14" fill="none" xmlns="http://www.w3.org/2000/svg">
<path fill-rule="evenodd" clip-rule="evenodd" d="M0 7.00005C0 6.50913 0.358172 6.11117 0.8 6.11117H15.2C15.6418 6.11117 16 6.50913 16 7.00005C16 7.49097 15.6418 7.88894 15.2 7.88894H0.8C0.358172 7.88894 0 7.49097 0 7.00005Z" fill="#232323"/>
<path fill-rule="evenodd" clip-rule="evenodd" d="M0 1.66672C0 1.1758 0.358172 0.777832 0.8 0.777832H15.2C15.6418 0.777832 16 1.1758 16 1.66672C16 2.15764 15.6418 2.55561 15.2 2.55561H0.8C0.358172 2.55561 0 2.15764 0 1.66672Z" fill="#232323"/>
<path fill-rule="evenodd" clip-rule="evenodd" d="M0 12.3334C0 11.8425 0.358172 11.4445 0.8 11.4445H15.2C15.6418 11.4445 16 11.8425 16 12.3334C16 12.8243 15.6418 13.2223 15.2 13.2223H0.8C0.358172 13.2223 0 12.8243 0 12.3334Z" fill="#232323"/>
</svg>