<svg width="27" height="27" viewBox="0 0 27 27" fill="none" xmlns="http://www.w3.org/2000/svg">
<path d="M26.7374 10.856H25.65V10.8H13.5V16.2H21.1295C20.0165 19.3435 17.0255 21.6 13.5 21.6C9.02678 21.6 5.4 17.9732 5.4 13.5C5.4 9.02678 9.02678 5.4 13.5 5.4C15.5648 5.4 17.4433 6.17895 18.8737 7.45132L22.6922 3.63285C20.281 1.38577 17.0559 0 13.5 0C6.04463 0 0 6.04463 0 13.5C0 20.9554 6.04463 27 13.5 27C20.9554 27 27 20.9554 27 13.5C27 12.5948 26.9069 11.7113 26.7374 10.856Z" fill="#FFC107"/>
<path d="M1.55664 7.21642L5.99207 10.4692C7.19222 7.4979 10.0988 5.4 13.5001 5.4C15.5649 5.4 17.4434 6.17895 18.8738 7.45132L22.6922 3.63285C20.2811 1.38577 17.056 0 13.5001 0C8.31474 0 3.81789 2.92747 1.55664 7.21642Z" fill="#FF3D00"/>
<path d="M13.5001 27.0001C16.9871 27.0001 20.1556 25.6656 22.5511 23.4955L18.3729 19.9599C16.9722 21.0257 15.2602 21.602 13.5001 21.6001C9.98872 21.6001 7.00724 19.3611 5.88404 16.2366L1.48169 19.6284C3.71594 24.0004 8.25329 27.0001 13.5001 27.0001Z" fill="#4CAF50"/>
<path d="M26.7374 10.856H25.65V10.7999H13.5V16.1999H21.1295C20.5971 17.696 19.638 19.0033 18.3708 19.9604L18.3728 19.959L22.5511 23.4947C22.2554 23.7633 27 20.2499 27 13.4999C27 12.5948 26.9068 11.7112 26.7374 10.856Z" fill="#1976D2"/>
</svg>
