<svg width="20" height="20" viewBox="0 0 26 24" fill="none" xmlns="http://www.w3.org/2000/svg">
<path d="M14.342 16.3532L17.1646 12.1666M17.1646 12.1666L17.4993 11.6732C17.7147 11.3467 18.0141 11.0841 18.3658 10.9128C18.7176 10.7416 19.109 10.6681 19.4989 10.7C19.8889 10.7319 20.2631 10.868 20.5824 11.0941C20.9017 11.3202 21.1543 11.628 21.3139 11.9852L24.7752 19.3732C25.4899 20.8958 24.4152 22.6665 22.7792 22.6665H3.22206C1.59007 22.6665 0.515415 20.9065 1.22074 19.3838L8.96467 2.63733C9.13753 2.24604 9.4213 1.914 9.78088 1.68229C10.1405 1.45057 10.5601 1.32935 10.9878 1.3336C11.4156 1.33786 11.8327 1.46741 12.1876 1.70623C12.5425 1.94506 12.8196 2.28267 12.9846 2.67732L17.1646 12.1666Z" stroke="black" stroke-width="2" stroke-linecap="round" stroke-linejoin="round"/>
</svg>