<svg width="20" height="20" viewBox="0 0 22 24" fill="none" xmlns="http://www.w3.org/2000/svg">
<path d="M3.66625 23C2.19375 23 1 21.8022 1 20.3234V9.56554C1 8.75277 1.36875 7.98279 2 7.47557L9.33375 1.587C9.80232 1.2076 10.3916 1 11 1C11.6084 1 12.1977 1.2076 12.6663 1.587L19.9987 7.47557C20.6312 7.98279 21 8.75277 21 9.56554V20.3234C21 21.8022 19.8063 23 18.3338 23H3.66625Z" stroke="black" stroke-width="1.5" stroke-linecap="round" stroke-linejoin="round"/>
<path d="M8 23V16.4C8 15.7635 8.25286 15.153 8.70294 14.7029C9.15303 14.2529 9.76348 14 10.4 14H11.6C12.2365 14 12.847 14.2529 13.2971 14.7029C13.7471 15.153 14 15.7635 14 16.4V23" stroke="black" stroke-width="1.5" stroke-linecap="round" stroke-linejoin="round"/>
</svg>