<svg width="32" height="28" viewBox="0 0 32 28" fill="none" xmlns="http://www.w3.org/2000/svg">
<path d="M24.4 18.1999V9.7999C24.4 5.8407 24.4 3.8597 23.1694 2.6305C21.9402 1.3999 19.9592 1.3999 16 1.3999H10.4C6.4408 1.3999 4.4598 1.3999 3.2306 2.6305C2 3.8597 2 5.8407 2 9.7999V18.1999C2 22.1591 2 24.1401 3.2306 25.3693C4.4598 26.5999 6.4408 26.5999 10.4 26.5999H27.2M7.6 8.3999H18.8M7.6 13.9999H18.8M7.6 19.5999H13.2" stroke="black" stroke-width="2.7" stroke-linecap="round" stroke-linejoin="round"/>
<path d="M24.4004 8.3999H25.8004C27.78 8.3999 28.7698 8.3999 29.3844 9.0159C30.0004 9.6305 30.0004 10.6203 30.0004 12.5999V23.7999C30.0004 24.5425 29.7054 25.2547 29.1803 25.7798C28.6552 26.3049 27.943 26.5999 27.2004 26.5999C26.4578 26.5999 25.7456 26.3049 25.2205 25.7798C24.6954 25.2547 24.4004 24.5425 24.4004 23.7999V8.3999Z" stroke="black" stroke-width="2.7" stroke-linecap="round" stroke-linejoin="round"/>
</svg>
