<svg width="29" height="27" viewBox="0 0 29 27" fill="none" xmlns="http://www.w3.org/2000/svg">
<path d="M21.1354 14.0734L15.4718 4.46314C15.3462 4.25008 15.1672 4.07348 14.9525 3.95078C14.7378 3.82809 14.4948 3.76356 14.2474 3.76356C14.0001 3.76356 13.7571 3.82809 13.5424 3.95078C13.3276 4.07348 13.1486 4.25008 13.0231 4.46314L10.1408 9.35638C10.4279 12.169 11.481 13.3116 13.5333 13.3116C16.3828 13.3116 18.9566 13.5618 21.1368 14.0734H21.1354ZM23.3453 17.8211C21.1467 16.7311 17.6932 16.154 13.5319 16.154C10.9467 16.154 9.11189 14.9716 8.11277 12.7943L3.03904 21.404C2.9117 21.6199 2.84373 21.8657 2.84203 22.1163C2.84033 22.367 2.90495 22.6137 3.02935 22.8313C3.15375 23.0489 3.33349 23.2298 3.55035 23.3555C3.7672 23.4812 4.01346 23.5474 4.26412 23.5472H24.2322C24.4827 23.5471 24.7288 23.4808 24.9455 23.355C25.1621 23.2291 25.3417 23.0482 25.4659 22.8307C25.5901 22.6131 25.6546 22.3665 25.6529 22.116C25.6511 21.8654 25.5831 21.6198 25.4558 21.404L23.3453 17.8226V17.8211ZM17.9206 3.01918L27.9046 19.9601C28.2865 20.6076 28.4904 21.3446 28.4956 22.0963C28.5008 22.8481 28.3072 23.5879 27.9344 24.2406C27.5615 24.8934 27.0227 25.436 26.3725 25.8134C25.7223 26.1908 24.9839 26.3896 24.2322 26.3896H4.26412C3.51245 26.3897 2.77411 26.1911 2.12395 25.8139C1.47378 25.4366 0.934897 24.8942 0.561915 24.2416C0.188933 23.589 -0.00488868 22.8494 9.36884e-05 22.0977C0.00507605 21.3461 0.208686 20.6091 0.590286 19.9615L10.5743 3.02061C10.9509 2.3811 11.488 1.85099 12.1323 1.48269C12.7767 1.11438 13.506 0.920654 14.2482 0.920654C14.9903 0.920654 15.7196 1.11438 16.364 1.48269C17.0083 1.85099 17.5454 2.3811 17.922 3.02061L17.9206 3.01918Z" fill="black"/>
</svg>
