<svg width="28" height="25" viewBox="0 0 28 25" fill="none" xmlns="http://www.w3.org/2000/svg">
<path fill-rule="evenodd" clip-rule="evenodd" d="M2.24699 3.10372C2.93421 2.41631 3.75012 1.87102 4.64812 1.49899C5.54611 1.12696 6.5086 0.935479 7.48061 0.935479C8.45262 0.935479 9.4151 1.12696 10.3131 1.49899C11.2111 1.87102 12.027 2.41631 12.7142 3.10372C12.9836 3.37408 13.3324 3.71056 13.7607 4.11314C14.1869 3.71056 14.5357 3.37359 14.8071 3.10224C16.1843 1.7038 18.0607 0.909736 20.0234 0.894747C21.9861 0.879758 23.8744 1.64507 25.2728 3.02231C26.6713 4.39956 27.4653 6.27593 27.4803 8.23864C27.4953 10.2013 26.73 12.0896 25.3528 13.4881L14.8071 24.0352C14.5295 24.3127 14.1531 24.4686 13.7607 24.4686C13.3682 24.4686 12.9918 24.3127 12.7142 24.0352L2.16558 13.4866C0.812835 12.0915 0.0631215 10.2202 0.0783526 8.27699C0.0935838 6.33377 0.872537 4.47452 2.24699 3.10076V3.10372Z" fill="#FF0000"/>
</svg>
