<svg width="82" height="6" viewBox="0 0 82 6" fill="none" xmlns="http://www.w3.org/2000/svg">
<path d="M0.333333 3C0.333333 4.47276 1.52724 5.66667 3 5.66667C4.47276 5.66667 5.66667 4.47276 5.66667 3C5.66667 1.52724 4.47276 0.333333 3 0.333333C1.52724 0.333333 0.333333 1.52724 0.333333 3ZM76.3333 3.00001C76.3333 4.47277 77.5272 5.66667 79 5.66667C80.4728 5.66667 81.6667 4.47277 81.6667 3.00001C81.6667 1.52725 80.4728 0.33334 79 0.33334C77.5272 0.33334 76.3333 1.52725 76.3333 3.00001ZM3 3.5L79 3.50001L79 2.50001L3 2.5L3 3.5Z" fill="#A5A5A5"/>
</svg>
