<svg width="50" height="55" viewBox="0 0 50 55" fill="none" xmlns="http://www.w3.org/2000/svg">
<path d="M35.75 26.2075C35.3619 25.8239 34.8382 25.6088 34.2925 25.6088C33.7468 25.6088 33.2231 25.8239 32.835 26.2075L20.8725 38.17L16.5 33.7975C16.1119 33.4139 15.5882 33.1988 15.0425 33.1988C14.4968 33.1988 13.9731 33.4139 13.585 33.7975C12.7875 34.595 12.7875 35.915 13.585 36.7125L18.92 42.0475C19.9925 43.12 21.725 43.12 22.7975 42.0475L35.7225 29.1225C36.5475 28.325 36.5475 27.005 35.75 26.2075ZM44 5.5H41.25V2.75C41.25 1.2375 40.0125 0 38.5 0C36.9875 0 35.75 1.2375 35.75 2.75V5.5H13.75V2.75C13.75 1.2375 12.5125 0 11 0C9.4875 0 8.25 1.2375 8.25 2.75V5.5H5.5C2.4475 5.5 0.0275 7.975 0.0275 11L0 49.5C0 50.9587 0.579462 52.3576 1.61091 53.3891C2.64236 54.4205 4.04131 55 5.5 55H44C47.025 55 49.5 52.525 49.5 49.5V11C49.5 7.975 47.025 5.5 44 5.5ZM41.25 49.5H8.25C6.7375 49.5 5.5 48.2625 5.5 46.75V19.25H44V46.75C44 48.2625 42.7625 49.5 41.25 49.5Z" fill="black"/>
</svg>