<svg width="61" height="61" viewBox="0 0 61 61" fill="none" xmlns="http://www.w3.org/2000/svg">
<path d="M4.12906 57.0972L23.3504 37.8759M47.5553 29.3284L41.8016 46.5895C41.7097 46.8662 41.5525 47.1167 41.3432 47.3196C41.134 47.5226 40.8788 47.6721 40.5995 47.7554L5.32813 58.2389C5.01036 58.3333 4.6728 58.3387 4.35217 58.2545C4.03155 58.1704 3.74014 57.9999 3.50967 57.7617C3.2792 57.5234 3.1185 57.2265 3.04505 56.9033C2.9716 56.58 2.98821 56.2428 3.09309 55.9284L14.5462 21.5752C14.6282 21.3285 14.7624 21.1024 14.9396 20.9122C15.1168 20.722 15.3328 20.5721 15.5731 20.4728L31.8435 13.7737C32.1743 13.6371 32.5382 13.6015 32.8891 13.6714C33.2401 13.7412 33.5626 13.9135 33.8158 14.1663L47.1173 27.4739C47.3553 27.7118 47.5224 28.0114 47.5997 28.3389C47.6771 28.6665 47.6617 29.0091 47.5553 29.3284Z" stroke="black" stroke-width="5" stroke-linecap="round" stroke-linejoin="round"/>
<path d="M47.9116 28.2652L56.4531 19.7207C57.5856 18.5879 58.2217 17.0518 58.2217 15.45C58.2217 13.8482 57.5856 12.312 56.4531 11.1793L50.05 4.77013C49.4891 4.20894 48.823 3.76377 48.09 3.46005C47.357 3.15633 46.5713 3 45.7778 3C44.9843 3 44.1986 3.15633 43.4656 3.46005C42.7325 3.76377 42.0665 4.20894 41.5055 4.77013L32.9641 13.3146M29.7565 31.4668C29.3357 31.0461 28.8361 30.7125 28.2863 30.4849C27.7366 30.2574 27.1474 30.1403 26.5524 30.1405C25.9574 30.1406 25.3682 30.2579 24.8186 30.4858C24.2689 30.7136 23.7695 31.0474 23.3489 31.4683C22.9282 31.8891 22.5946 32.3887 22.367 32.9384C22.1395 33.4882 22.0224 34.0774 22.0226 34.6724C22.0227 35.2674 22.14 35.8565 22.3679 36.4062C22.5957 36.9559 22.9295 37.4553 23.3504 37.8759C24.2003 38.7254 25.3528 39.2025 26.5545 39.2022C27.7562 39.2019 28.9085 38.7243 29.758 37.8744C30.6075 37.0245 31.0846 35.8719 31.0843 34.6703C31.084 33.4686 30.6064 32.3163 29.7565 31.4668Z" stroke="black" stroke-width="5" stroke-linecap="round" stroke-linejoin="round"/>
</svg>
