<svg width="58" height="55" viewBox="0 0 58 55" fill="none" xmlns="http://www.w3.org/2000/svg">
<path d="M5.77369 54.85C4.18592 54.85 2.82718 54.2852 1.69746 53.1554C0.567746 52.0257 0.00192456 50.666 0 49.0763V17.3211C0 15.7333 0.565821 14.3746 1.69746 13.2448C2.82911 12.1151 4.18785 11.5493 5.77369 11.5474H17.3211V5.77369C17.3211 4.18592 17.8869 2.82718 19.0185 1.69746C20.1502 0.567746 21.5089 0.00192456 23.0947 0H34.6421C36.2299 0 37.5896 0.565821 38.7212 1.69746C39.8529 2.82911 40.4177 4.18785 40.4158 5.77369V11.5474H51.9632C53.5509 11.5474 54.9106 12.1132 56.0423 13.2448C57.1739 14.3765 57.7388 15.7352 57.7369 17.3211V49.0763C57.7369 50.6641 57.172 52.0238 56.0423 53.1554C54.9126 54.2871 53.5529 54.8519 51.9632 54.85H5.77369ZM23.0947 11.5474H34.6421V5.77369H23.0947V11.5474ZM11.5474 17.3211H5.77369V49.0763H11.5474V17.3211ZM40.4158 49.0763V17.3211H17.3211V49.0763H40.4158ZM46.1895 17.3211V49.0763H51.9632V17.3211H46.1895Z" fill="black"/>
</svg>
