<svg width="20" height="20" viewBox="0 0 29 30" fill="none" xmlns="http://www.w3.org/2000/svg">
<path d="M1.76017 27.3212H3.69284L22.5231 8.49091L20.5904 6.55825L1.76017 25.3885V27.3212ZM1.42222 29.0813C1.01973 29.0813 0.681779 28.9452 0.408366 28.673C0.134953 28.4007 -0.00116592 28.0628 7.52209e-06 27.6591V25.8286C7.52209e-06 25.439 0.0762816 25.0682 0.228829 24.7161C0.381377 24.3641 0.586143 24.0602 0.843127 23.8044L23.199 1.42384C23.3785 1.26308 23.5774 1.13869 23.7957 1.05068C24.014 0.962674 24.2416 0.918671 24.4786 0.918671C24.7157 0.918671 24.9445 0.956221 25.1651 1.03132C25.3857 1.10642 25.5911 1.24019 25.7812 1.43264L27.6593 3.32306C27.8529 3.50964 27.9855 3.71499 28.0571 3.93912C28.1275 4.16207 28.1627 4.38503 28.1627 4.60798C28.1627 4.84736 28.1228 5.07618 28.043 5.29445C27.962 5.51153 27.8341 5.71043 27.6593 5.89114L5.27699 28.2382C5.02235 28.494 4.71843 28.6982 4.36522 28.8508C4.01201 29.0033 3.64121 29.0802 3.2528 29.0813H1.42222ZM21.5409 7.54042L20.5904 6.55825L22.5231 8.49091L21.5409 7.54042Z" fill="#2D2D2D"/>
</svg>
