<svg width="29" height="28" viewBox="0 0 29 28" fill="none" xmlns="http://www.w3.org/2000/svg">
<path d="M2.88421 27.4C2.09105 27.4 1.4123 27.1178 0.847958 26.5535C0.283614 25.9891 0.000961403 25.3099 0 24.5158V8.65263C0 7.85947 0.282653 7.18072 0.847958 6.61638C1.41326 6.05203 2.09201 5.76938 2.88421 5.76842H8.65263V2.88421C8.65263 2.09105 8.93528 1.4123 9.50059 0.847958C10.0659 0.283614 10.7446 0.000961403 11.5368 0H17.3053C18.0984 0 18.7777 0.282653 19.343 0.847958C19.9083 1.41326 20.1904 2.09201 20.1895 2.88421V5.76842H25.9579C26.751 5.76842 27.4303 6.05107 27.9956 6.61638C28.5609 7.18168 28.8431 7.86043 28.8421 8.65263V24.5158C28.8421 25.3089 28.5599 25.9882 27.9956 26.5535C27.4312 27.1188 26.752 27.401 25.9579 27.4H2.88421ZM11.5368 5.76842H17.3053V2.88421H11.5368V5.76842ZM5.76842 8.65263H2.88421V24.5158H5.76842V8.65263ZM20.1895 24.5158V8.65263H8.65263V24.5158H20.1895ZM23.0737 8.65263V24.5158H25.9579V8.65263H23.0737Z" fill="black"/>
</svg>
