<svg width="20" height="20" viewBox="0 0 29 32" fill="none" xmlns="http://www.w3.org/2000/svg">
<path d="M24.8865 6.84714L24.0135 20.9637C23.791 24.5699 23.6798 26.3737 22.7743 27.6706C22.3274 28.3116 21.7519 28.8525 21.0846 29.259C19.737 30.0813 17.9304 30.0813 14.3171 30.0813C10.6982 30.0813 8.88874 30.0813 7.53834 29.2576C6.87073 28.8502 6.29526 28.3083 5.84858 27.6664C4.94456 26.3681 4.83473 24.5615 4.61787 20.9496L3.76454 6.84714M1.65234 6.84714H26.9987M20.0369 6.84714L19.0752 4.86449C18.4373 3.54647 18.1176 2.88887 17.5671 2.4777C17.4448 2.38662 17.3153 2.30562 17.1798 2.2355C16.5701 1.91867 15.8379 1.91867 14.3748 1.91867C12.8738 1.91867 12.1232 1.91867 11.5022 2.24817C11.365 2.32169 11.234 2.40647 11.1108 2.50164C10.5546 2.9283 10.2434 3.61125 9.62097 4.97573L8.76764 6.84714" stroke="#FF0000" stroke-width="2.2" stroke-linecap="round" stroke-linejoin="round"/>
</svg>
